<?xml version="1.0" encoding="utf-8"?>
<!-- Generator: Adobe Illustrator 21.0.0, SVG Export Plug-In . SVG Version: 6.00 Build 0)  -->
<svg version="1.1" id="Layer_1" xmlns="http://www.w3.org/2000/svg" xmlns:xlink="http://www.w3.org/1999/xlink" x="0px" y="0px"
	 viewBox="0 0 500 500" style="enable-background:new 0 0 500 500;" xml:space="preserve">
<style type="text/css">
	.st0{clip-path:url(#SVGID_2_);}
</style>
<g>
	<defs>
		<path id="SVGID_1_" d="M501,471.7V28.4c0-16.1-13-29.3-29.3-29.3H28.5C12.2-0.9-0.8,12.3-0.8,28.4v443.3c0,16.1,13,29.3,29.3,29.3
			h443.2c16.3,0,29.3-13,29.3-29.3H501z M414,388.3c-6.6,30.7,0.7,41,34.4,41c22.7,0,42.5-1.5,63.7-2.9L496.3,502
			c-28.6,1.4-54.6,2.6-77.6,3.8c-31.3,2.5-62,5.1-92,7.9c-3-0.8-7.6-2.2-10.3-3.1c-47.6-16.8-45.7-54.9-35-106.9l42.5-198.5h-81.3
			l18.3-86.4h81.3L367.9-2.9h128.9l-25.7,121.6h104l-18.3,86.4h-104L414,388.3z"/>
	</defs>
	<clipPath id="SVGID_2_">
		<use xlink:href="#SVGID_1_"  style="overflow:visible;"/>
	</clipPath>
	<path class="st0" d="M500.1,470.9c0,16.2-13,29.2-29.2,29.2H29.4c-16.2,0-29.2-13.2-29.2-29.2V29.2c0-16,13-29.2,29.2-29.2H471
		c16.2,0,29.2,13.2,29.2,29.2v441.6H500.1z"/>
</g>
</svg>
